<svg xmlns="http://www.w3.org/2000/svg" width="822" height="266" viewBox="0 0 822 266" role="img" aria-label="BeOnEdge">
  <defs>
    <mask id="beonedge-logo-cutout-dark">
      <rect width="240" height="266" fill="#fff"/>
      <path fill="#000" d="M87 91h38l76 42-76 42H87l64-42-64-42Z"/>
      <path fill="#000" d="M83 118h66v30H83z"/>
    </mask>
  </defs>
  <path fill="#F6F1E7" mask="url(#beonedge-logo-cutout-dark)" fill-rule="evenodd" d="M32 24h105c46 0 80 30 80 72 0 24-12 46-32 58 27 12 43 34 43 64 0 46-35 76-86 76H32V24Zm48 45v64h58c20 0 34-13 34-32 0-20-14-32-34-32H80Zm0 105v75h62c24 0 39-15 39-38 0-22-15-37-39-37H80Z"/>
  <text x="256" y="171" fill="#F6F1E7" font-family="Inter, Avenir Next, Montserrat, Arial, sans-serif" font-size="102" font-weight="600" letter-spacing="-2">BeOnEdge</text>
</svg>
